<?xml version="1.0" encoding="UTF-8" standalone="no"?>
<!-- Created with Inkscape (http://www.inkscape.org/) -->

<svg
   width="1000"
   height="1000"
   viewBox="0 0 264.58333 264.58334"
   version="1.1"
   id="svg5"
   xmlns="http://www.w3.org/2000/svg"
   xmlns:svg="http://www.w3.org/2000/svg">
  <defs
     id="defs2" />
  <g
     id="layer1">
    <path
       id="path38506"
       style="color:#000000;font-variation-settings:normal;opacity:1;vector-effect:none;fill:#0ebffb;fill-opacity:1;stroke-width:1;stroke-linecap:butt;stroke-linejoin:miter;stroke-miterlimit:4;stroke-dasharray:none;stroke-dashoffset:0;stroke-opacity:1;-inkscape-stroke:none;paint-order:markers stroke fill;stop-color:#000000;stop-opacity:1"
       d="m 160.35665,10.348574 c -1.27414,-0.138432 -2.52044,-0.09629 -3.87738,0.113107 -3.25439,0.502493 -5.74323,1.778685 -8.62394,4.367519 -4.54071,4.080647 -8.20007,10.900706 -10.99127,20.668825 -0.6045,2.11579 -0.94669,3.514782 -1.30563,4.78423 -0.0538,0.189703 -0.0975,0.384832 -0.19842,0.813577 -0.10058,0.429732 -0.23652,1.018971 -0.39888,1.736292 -0.3247,1.434642 -0.75334,3.379284 -1.21043,5.55812 -0.91418,4.357674 -1.94103,9.644872 -2.47056,13.719686 -2.75818,21.230172 -3.5289,39.79016 -2.9566,70.97566 0.50362,27.68155 0.0406,39.1173 -1.42278,52.53524 -1.0236,9.38875 -2.38999,16.43819 -4.25441,21.36533 -1.86442,4.92714 -4.14133,7.6374 -7.01269,8.83425 -1.0297,0.42837 -1.84756,0.6616 -3.88531,0.45442 v 0 c -2.0597,-0.21073 -2.73685,-0.56467 -4.51237,-1.60731 -3.14232,-1.84489 -5.51372,-4.6923 -7.459116,-9.4633 -1.945396,-4.77098 -3.399161,-11.4397 -4.556056,-20.61128 -0.141323,-1.12208 -0.320135,-4.49257 -0.500065,-10.07446 -0.17993,-5.58188 -0.373576,-13.44502 -0.587338,-23.83383 C 93.488767,119.41083 93.209982,114.01931 91.742299,104.83463 89.89789,93.292704 86.570051,83.666419 81.796778,76.274107 79.755574,73.112863 74.945116,67.95549 72.158895,66.046848 66.925587,62.462388 60.032575,60.474286 54.105353,60.893534 v 0 C 44.552508,61.56806 33.300438,67.349346 25.080456,75.609355 14.667381,86.073044 4.7893205,101.83487 2.1871948,112.48225 c -2.10907098,8.62932 -1.066778,16.32173 3.4328918,25.93922 4.5433574,9.71098 11.4032484,15.69322 22.1054704,19.31947 4.965496,1.68234 16.561679,2.83882 23.542166,2.47447 4.546913,-0.2376 14.16661,-1.1715 16.928346,-1.67478 0.113993,0.73364 0.268726,1.86759 0.474259,3.50235 0.415129,3.30094 1.035079,8.60127 1.958604,16.67039 2.906615,25.39709 4.222206,34.55566 6.296226,43.75456 2.095457,9.29309 4.736393,16.30097 8.302479,21.4189 3.566087,5.11794 8.115032,8.30488 13.699869,9.76889 2.684114,0.70345 6.510804,0.86932 9.143814,0.37504 l 1.22832,-0.23019 -0.0224,-0.19248 c 6.15511,-1.64555 11.42703,-6.63125 15.31904,-14.44993 5.15223,-10.35119 9.05166,-26.64579 10.75312,-46.53263 1.48394,-17.34602 1.63126,-28.77515 0.77784,-59.83362 -0.4828,-17.57151 -0.4703,-27.96896 -0.254,-32.19582 0.98956,-19.347715 2.95772,-33.091375 7.45719,-42.228613 0.89365,-1.814836 1.46209,-2.980303 1.63308,-3.236449 0.58114,-0.871313 1.53037,-2.030968 3.11144,-3.466632 1.96581,-1.78504 3.02772,-2.136374 5.61369,-1.871227 v 0 c 4.58338,0.469498 8.31599,4.182709 11.07061,11.796866 3.17463,8.777077 4.70429,21.880041 5.61969,49.403965 1.32534,39.85119 2.874,53.96162 7.49477,67.52094 2.89656,8.49976 7.04247,14.81089 12.44575,18.73608 5.40328,3.92517 12.02787,5.37744 19.52783,4.32981 h 0.0102 l 0.0102,-0.002 c 4.23694,-0.64759 5.61694,-1.29915 6.79832,-1.77796 1.15009,-0.46633 9.96848,-4.12716 16.6267,-8.76877 5.06781,-3.53269 14.44885,-12.06766 17.87493,-16.30725 8.59631,-10.63724 12.43234,-20.60303 12.2711,-32.11645 -0.13126,-9.38189 -2.43469,-17.23933 -7.01462,-23.6354 -4.82692,-6.74098 -13.18558,-11.27296 -23.90924,-13.21567 -7.14823,-1.29506 -16.59084,-1.34685 -27.91962,-0.20438 -1.34363,0.13549 -2.60395,0.26304 -3.54993,0.35718 -0.37835,0.0377 -0.38597,0.0369 -0.65876,0.0635 -0.13004,-0.5174 -0.27736,-1.20848 -0.40284,-2.00616 -2.89503,-18.384706 -3.81489,-23.964353 -5.08782,-30.852423 -4.69412,-25.399881 -9.89329,-41.310822 -16.94226,-51.130338 -3.85442,-5.369597 -8.17,-8.792688 -13.55499,-10.669765 -1.46331,-0.510018 -2.76397,-0.827939 -4.03811,-0.966371 z M 40.87192,82.887895 c 1.518991,0.163147 2.888327,0.689188 4.234601,1.605326 2.692446,1.832274 5.331249,5.447751 8.181375,11.267049 4.309783,8.79983 8.420537,22.75835 11.481377,39.20448 0.527191,2.83265 1.137896,6.72734 1.583505,9.9197 0.222804,1.59617 0.404461,3.02032 0.513882,4.03812 0.02032,0.18619 0.02235,0.27342 0.03759,0.43059 -0.268218,0.0274 -0.481472,0.0521 -0.831477,0.0833 -1.222934,0.10906 -2.890562,0.23601 -4.696973,0.35321 -8.242943,0.5336 -17.122194,-0.19026 -20.752084,-1.48031 -8.112186,-2.88302 -16.20192,-11.10287 -22.016266,-22.79205 v -0.002 c -4.402949,-8.85105 -5.028589,-18.85058 -1.768007,-27.707257 0.919969,-2.499366 2.410207,-4.162406 7.119778,-7.655561 1.757034,-1.303248 4.231858,-2.863674 6.512629,-4.153211 2.280772,-1.289537 4.492558,-2.329457 5.26643,-2.541933 1.9456,-0.534227 3.614447,-0.73265 5.133437,-0.569503 z m 175.39955,28.909755 c 3.10991,0.0283 5.72463,0.27187 7.97106,0.75206 4.49297,0.9604 7.54334,2.79424 10.4972,5.9034 4.41219,4.64453 8.5516,13.11682 10.51295,21.81378 0.82375,3.65225 1.00886,13.41113 0.31952,17.22601 -0.9858,5.44251 -3.16914,11.24327 -5.84787,16.07112 -2.67873,4.82785 -5.91127,8.67209 -8.61794,10.24512 -1.42177,0.82633 -3.33323,1.34606 -5.15132,1.45054 -1.81728,0.10444 -3.53246,-0.22919 -4.53025,-0.81358 -3.1e-4,-1.9e-4 0,2e-4 0,0 -1.75714,-1.03079 -3.79336,-3.53601 -5.73866,-7.47299 -1.9457,-3.93772 -3.83156,-9.26875 -5.56604,-15.8469 -2.52095,-9.56104 -4.52314,-20.02193 -7.15158,-37.42057 -0.8264,-5.46947 -1.51604,-9.96669 -1.69262,-10.99321 l 4.05203,-0.36908 c 4.22972,-0.3865 7.83574,-0.57405 10.94555,-0.5457 z" />
  </g>
</svg>
